<?xml version="1.0"?>
<svg version="1.1" width="20" height="20" x="0" y="0" viewBox="0 0 512 512" style="enable-background:new 0 0 512 512" xml:space="preserve" class="">
	<g>
		<g>
			<g>
				<g>
					<path d="M256,390.095c26.819,0,48.762-21.943,48.762-48.762c0-26.819-21.943-48.762-48.762-48.762     c-26.819,0-48.762,21.943-48.762,48.762C207.238,368.152,229.181,390.095,256,390.095z" fill="#000000" data-original="#000000" style="" class="" />
					<path d="M402.286,170.667h-24.381v-48.762C377.905,54.613,323.291,0,256,0S134.095,54.613,134.095,121.905v48.762h-24.381     c-26.819,0-48.762,21.943-48.762,48.762v243.81c0,26.819,21.943,48.762,48.762,48.762h292.571     c26.819,0,48.762-21.943,48.762-48.762v-243.81C451.048,192.61,429.105,170.667,402.286,170.667z M180.419,121.905     c0-41.691,33.89-75.581,75.581-75.581s75.581,33.89,75.581,75.581v48.762H180.419V121.905z M402.286,463.238H109.714v-243.81     h292.571V463.238z" fill="#000000" data-original="#000000" style="" class="" />
				</g>
			</g>
		</g>
	</g>
</svg>
